Coordinates
version=1
nRows=38
nColumns=12
inDegrees=yes

Units are S.I. units (second, meters, Newtons, ...)
Angles are in degrees

endheader
time	SC_y	SC_z	SC_x	AC_y	AC_z	AC_x	GH_y	GH_z	GH_yy	EL_x	PS_y
       0.0              -31.95          37.96           58.4          67.25          3.971          15.41         -55.12           15.4          -28.9          13.21          97.49
   0.04329              -31.95          37.96           58.4          67.24          3.971           15.4          -55.1          15.41         -28.88          13.22          97.48
   0.08659              -31.95          37.96           58.4          67.24          3.971           15.4         -55.08          15.41         -28.85          13.23          97.48
    0.1299              -31.95          37.95           58.4          67.23          3.971           15.4         -55.07          15.42         -28.83          13.25          97.47
    0.1732              -31.94          37.95           58.4          67.23          3.971          15.39         -55.05          15.43          -28.8          13.26          97.47
    0.2165              -31.94          37.95          58.41          67.22          3.971          15.39         -55.03          15.44         -28.78          13.28          97.46
    0.2598              -31.94          37.94          58.41          67.22          3.971          15.38         -55.01          15.44         -28.75           13.3          97.45
    0.3031              -31.93          37.94          58.41          67.21          3.971          15.38         -54.99          15.45         -28.72          13.32          97.45
    0.3464              -31.93          37.93          58.41          67.21          3.971          15.38         -54.96          15.46         -28.68          13.34          97.44
    0.3896              -31.93          37.93          58.41           67.2          3.971          15.37         -54.93          15.47         -28.65          13.36          97.43
    0.4329              -31.92          37.92          58.41          67.19          3.971          15.36         -54.91          15.48         -28.61          13.38          97.42
    0.4762              -31.92          37.92          58.41          67.19          3.972          15.36         -54.88           15.5         -28.56           13.4          97.41
    0.5195              -31.91          37.91          58.41          67.18          3.972          15.35         -54.84          15.51         -28.52          13.43           97.4
    0.5628              -31.91           37.9          58.41          67.17          3.972          15.35         -54.81          15.52         -28.47          13.46          97.39
    0.6061               -31.9           37.9          58.41          67.16          3.972          15.34         -54.77          15.54         -28.42          13.49          97.38
    0.6494               -31.9          37.89          58.41          67.15          3.972          15.33         -54.73          15.56         -28.36          13.52          97.36
    0.6927              -31.89          37.88          58.42          67.14          3.972          15.32         -54.69          15.57          -28.3          13.56          97.35
     0.736              -31.88          37.87          58.42          67.13          3.972          15.31         -54.64          15.59         -28.23           13.6          97.33
    0.7793              -31.87          37.86          58.42          67.12          3.972           15.3         -54.58          15.61         -28.16          13.64          97.32
    0.8226              -31.86          37.85          58.42           67.1          3.972          15.29         -54.53          15.64         -28.08          13.69           97.3
    0.8659              -31.85          37.83          58.42          67.09          3.973          15.28         -54.46          15.66         -27.99          13.74          97.28
    0.9092              -31.84          37.82          58.43          67.07          3.973          15.26         -54.39          15.69         -27.89           13.8          97.26
    0.9525              -31.83           37.8          58.43          67.05          3.973          15.25         -54.31          15.72         -27.78          13.87          97.23
    0.9958              -31.82          37.79          58.43          67.03          3.973          15.23         -54.23          15.76         -27.66          13.94           97.2
     1.039               -31.8          37.77          58.43          67.01          3.973          15.21         -54.13           15.8         -27.53          14.01          97.17
     1.082              -31.79          37.75          58.44          66.98          3.974          15.19         -54.03          15.84         -27.38           14.1          97.14
     1.126              -31.77          37.72          58.44          66.95          3.974          15.17         -53.91          15.89         -27.22           14.2           97.1
     1.169              -31.75           37.7          58.45          66.92          3.974          15.14         -53.77          15.94         -27.03          14.31          97.06
     1.212              -31.73          37.67          58.45          66.88          3.974          15.11         -53.62           16.0         -26.82          14.43          97.01
     1.256               -31.7          37.63          58.46          66.84          3.975          15.08         -53.45          16.07         -26.58          14.58          96.95
     1.299              -31.67          37.59          58.46          66.79          3.975          15.04         -53.25          16.15          -26.3          14.74          96.89
     1.342              -31.63          37.55          58.47          66.74          3.976          14.99         -53.03          16.24         -25.99          14.92          96.82
     1.385               -31.6           37.5          58.48          66.67          3.976          14.94         -52.77          16.35         -25.63          15.14          96.73
     1.429              -31.55          37.44          58.49           66.6          3.977          14.88         -52.46          16.47         -25.21          15.38          96.64
     1.472              -31.49          37.37           58.5          66.51          3.978          14.81         -52.11          16.61         -24.71          15.67          96.52
     1.515              -31.43          37.29          58.52          66.41          3.979          14.73         -51.69          16.78         -24.13          16.02          96.39
     1.559              -31.36          37.19          58.53          66.29           3.98          14.63         -51.19          16.98         -23.44          16.42          96.23
     1.602              -31.26          37.07          58.55          66.15          3.982          14.52          -50.6          17.22         -22.61          16.91          96.04
